<svg width="28" height="28" viewBox="0 0 28 28" fill="none" xmlns="http://www.w3.org/2000/svg">
<path d="M24.5297 13.7862C24.7729 13.7238 24.9887 13.5827 25.1434 13.3848C25.298 13.187 25.3829 12.9435 25.3847 12.6924V9.23082C25.3844 8.9258 25.2633 8.6333 25.0479 8.4173C24.8326 8.20129 24.5405 8.07934 24.2354 8.07812V6.92312H24.2308C24.2308 4.37774 22.1608 2.30774 19.6154 2.30774H8.07697C5.53159 2.30774 3.46159 4.37774 3.46159 6.92312V8.07697C3.15557 8.07697 2.86208 8.19854 2.64569 8.41492C2.4293 8.63131 2.30774 8.9248 2.30774 9.23082V12.6924C2.30774 13.2243 2.67351 13.6524 3.16389 13.7862C2.60912 14.5591 2.31015 15.4863 2.30889 16.4377L2.31351 20.7727C2.31466 21.6185 2.77966 22.3524 3.46159 22.7527V24.2308C3.46159 24.5368 3.58315 24.8303 3.79954 25.0467C4.01593 25.2631 4.30941 25.3847 4.61543 25.3847H5.76928C6.0753 25.3847 6.36878 25.2631 6.58517 25.0467C6.80156 24.8303 6.92312 24.5368 6.92312 24.2308V23.077H20.7693V24.2308C20.7693 24.5368 20.8908 24.8303 21.1072 25.0467C21.3236 25.2631 21.6171 25.3847 21.9231 25.3847H23.077C23.383 25.3847 23.6765 25.2631 23.8929 25.0467C24.1093 24.8303 24.2308 24.5368 24.2308 24.2308V22.7608C24.4079 22.6623 24.5712 22.5409 24.7166 22.3997C25.1516 21.9635 25.3916 21.3831 25.3904 20.767L25.3858 16.4297C25.381 15.4811 25.0819 14.5575 24.5297 13.7862ZM5.76928 20.7693H4.6212L4.61659 16.4343C4.61543 15.9047 4.80235 15.4074 5.12774 15H22.5635C22.89 15.4074 23.077 15.9035 23.0781 16.4331L23.0839 20.7693H5.76928ZM12.697 9.23082V12.6924H5.76928V9.23082H12.697ZM21.9231 12.6924H15.0047V9.23082H21.9231V12.6924ZM8.07697 4.61543H19.6154C20.8881 4.61543 21.9231 5.65043 21.9231 6.92312H17.3077V5.76928H10.3847V6.92312H5.76928C5.76928 5.65043 6.80428 4.61543 8.07697 4.61543Z" fill="black"/>
<path d="M7.50006 19.6153C8.45593 19.6153 9.23083 18.8405 9.23083 17.8846C9.23083 16.9287 8.45593 16.1538 7.50006 16.1538C6.54418 16.1538 5.76929 16.9287 5.76929 17.8846C5.76929 18.8405 6.54418 19.6153 7.50006 19.6153Z" fill="black"/>
<path d="M20.1923 19.6153C21.1482 19.6153 21.9231 18.8405 21.9231 17.8846C21.9231 16.9287 21.1482 16.1538 20.1923 16.1538C19.2364 16.1538 18.4615 16.9287 18.4615 17.8846C18.4615 18.8405 19.2364 19.6153 20.1923 19.6153Z" fill="black"/>
</svg>
